<mxfile host="app.diagrams.net" modified="2023-06-09T12:44:15.353Z" agent="Mozilla/5.0 (Windows NT 10.0; Win64; x64) AppleWebKit/537.36 (KHTML, like Gecko) Chrome/114.0.0.0 Safari/537.36 Edg/114.0.1823.41" version="21.3.8" etag="ehhDcovCGORRmUON8FZj" type="github">
  <diagram name="Страница 1" id="l8FLo3JvDaeCekWIVYb7">
    <mxGraphModel>
      <root>
        <mxCell id="0" />
        <mxCell id="1" parent="0" />
      </root>
    </mxGraphModel>
  </diagram>
</mxfile>
